<svg width="283" height="322" viewBox="0 0 283 322" fill="none" xmlns="http://www.w3.org/2000/svg">
<path d="M11.3131 191.672L129.512 309.872C136.128 316.487 146.891 316.487 153.507 309.871L271.705 191.672C278.321 185.057 278.321 174.293 271.705 167.677L153.507 49.4788C146.891 42.863 136.127 42.863 129.512 49.4788L11.3131 167.677C4.69733 174.293 4.69734 185.056 11.3131 191.672ZM133.754 53.7214C138.03 49.4456 144.988 49.4457 149.264 53.7214L267.463 171.92C271.738 176.196 271.738 183.154 267.463 187.43L149.264 305.628C144.988 309.904 138.03 309.904 133.754 305.628L15.5558 187.43C11.28 183.154 11.28 176.196 15.5558 171.92L133.754 53.7214Z" fill="#1C1C1C" style="mix-blend-mode:multiply"/>
<path d="M11.3131 191.672L129.512 309.872C136.128 316.487 146.891 316.487 153.507 309.871L271.705 191.672C278.321 185.057 278.321 174.293 271.705 167.677L153.507 49.4788C146.891 42.863 136.127 42.863 129.512 49.4788L11.3131 167.677C4.69733 174.293 4.69734 185.056 11.3131 191.672ZM133.754 53.7214C138.03 49.4456 144.988 49.4457 149.264 53.7214L267.463 171.92C271.738 176.196 271.738 183.154 267.463 187.43L149.264 305.628C144.988 309.904 138.03 309.904 133.754 305.628L15.5558 187.43C11.28 183.154 11.28 176.196 15.5558 171.92L133.754 53.7214Z" stroke="#E6E6E6"/>
<mask id="path-2-outside-1_2_3" maskUnits="userSpaceOnUse" x="26.9708" y="64.9708" width="230" height="230" fill="black">
<rect fill="white" x="26.9708" y="64.9708" width="230" height="230"/>
<path fill-rule="evenodd" clip-rule="evenodd" d="M150.01 289.564C145.324 294.25 137.725 294.25 133.039 289.564L31.4853 188.01C28.8646 185.389 27.7096 181.857 28.0202 178.434C28.0068 178.31 28 178.186 28 178.06V118.94C28 116.212 31.2055 114 35.1591 114H88.5245L133.039 69.4853C137.725 64.7993 145.324 64.7993 150.01 69.4853L194.525 114H247.841C251.795 114 255 116.212 255 118.94V178.06C255 178.088 255 178.116 254.999 178.143C255.404 181.657 254.259 185.315 251.564 188.01L150.01 289.564Z"/>
</mask>
<path fill-rule="evenodd" clip-rule="evenodd" d="M150.01 289.564C145.324 294.25 137.725 294.25 133.039 289.564L31.4853 188.01C28.8646 185.389 27.7096 181.857 28.0202 178.434C28.0068 178.31 28 178.186 28 178.06V118.94C28 116.212 31.2055 114 35.1591 114H88.5245L133.039 69.4853C137.725 64.7993 145.324 64.7993 150.01 69.4853L194.525 114H247.841C251.795 114 255 116.212 255 118.94V178.06C255 178.088 255 178.116 254.999 178.143C255.404 181.657 254.259 185.315 251.564 188.01L150.01 289.564Z" fill="#1C1C1C" fill-opacity="0.2"/>
<path d="M133.039 289.564L133.746 288.857L133.746 288.857L133.039 289.564ZM150.01 289.564L149.303 288.857L149.303 288.857L150.01 289.564ZM31.4853 188.01L32.1924 187.303L32.1924 187.303L31.4853 188.01ZM28.0202 178.434L29.0161 178.524L29.0251 178.425L29.0143 178.326L28.0202 178.434ZM88.5245 114V115H88.9387L89.2316 114.707L88.5245 114ZM133.039 69.4853L132.332 68.7782L132.332 68.7782L133.039 69.4853ZM150.01 69.4853L150.717 68.7782L150.717 68.7782L150.01 69.4853ZM194.525 114L193.817 114.707L194.11 115H194.525V114ZM254.999 178.143L253.999 178.12L253.998 178.189L254.006 178.258L254.999 178.143ZM132.332 290.271C137.409 295.347 145.64 295.347 150.717 290.271L149.303 288.857C145.007 293.152 138.042 293.152 133.746 288.857L132.332 290.271ZM30.7782 188.717L132.332 290.271L133.746 288.857L32.1924 187.303L30.7782 188.717ZM27.0243 178.343C26.688 182.05 27.9388 185.878 30.7782 188.717L32.1924 187.303C29.7904 184.901 28.7311 181.665 29.0161 178.524L27.0243 178.343ZM27 178.06C27 178.222 27.0088 178.383 27.026 178.541L29.0143 178.326C29.0048 178.238 29 178.15 29 178.06H27ZM27 118.94V178.06H29V118.94H27ZM35.1591 113C33.0053 113 31.0117 113.601 29.529 114.624C28.0505 115.644 27 117.153 27 118.94H29C29 117.998 29.5522 117.038 30.6649 116.27C31.7733 115.505 33.3593 115 35.1591 115V113ZM88.5245 113H35.1591V115H88.5245V113ZM132.332 68.7782L87.8174 113.293L89.2316 114.707L133.746 70.1924L132.332 68.7782ZM150.717 68.7782C145.64 63.7017 137.409 63.7017 132.332 68.7782L133.746 70.1924C138.042 65.8969 145.007 65.8969 149.303 70.1924L150.717 68.7782ZM195.232 113.293L150.717 68.7782L149.303 70.1924L193.817 114.707L195.232 113.293ZM194.525 115H247.841V113H194.525V115ZM247.841 115C249.641 115 251.227 115.505 252.335 116.27C253.448 117.038 254 117.998 254 118.94H256C256 117.153 254.949 115.644 253.471 114.624C251.988 113.601 249.995 113 247.841 113V115ZM254 118.94V178.06H256V118.94H254ZM254 178.06C254 178.08 254 178.1 253.999 178.12L255.999 178.167C256 178.132 256 178.096 256 178.06H254ZM252.271 188.717C255.191 185.797 256.431 181.832 255.992 178.029L254.006 178.258C254.377 181.481 253.327 184.833 250.857 187.303L252.271 188.717ZM150.717 290.271L252.271 188.717L250.857 187.303L149.303 288.857L150.717 290.271Z" fill="#E6E6E6" mask="url(#path-2-outside-1_2_3)"/>
<path d="M132.674 228.917C137.555 233.799 145.47 233.799 150.351 228.917L251.905 127.363C256.787 122.482 256.786 114.567 251.905 109.686L150.351 8.13173C145.47 3.25047 137.555 3.25047 132.674 8.13173L31.1197 109.686C26.2384 114.567 26.2384 122.482 31.1197 127.363L132.674 228.917Z" fill="#1C1C1C" stroke="#E6E6E6"/>
</svg>
