<svg width="376" height="462" viewBox="0 0 376 462" fill="none" xmlns="http://www.w3.org/2000/svg">
<path d="M202.007 7.87437L202.008 7.87446C208.507 11.0782 222.601 18.4272 233.314 24.2L233.314 24.2C244.041 29.9788 257.323 37.0868 262.833 39.9959C268.324 42.8953 284.292 51.4295 298.318 58.9588C312.347 66.4911 333.053 77.5153 344.335 83.459C347.895 85.3349 350.972 86.8726 353.662 88.2166C357.517 90.1429 360.575 91.6713 363.12 93.2276C367.22 95.7346 369.436 98.0126 370.817 101.66C372.286 105.541 372.881 111.143 373.057 120.547C373.16 126.112 373.119 132.847 373.068 141.159C373.034 146.824 372.995 153.222 372.994 160.481C372.992 190.594 372.952 206.012 372.347 214.505C372.044 218.76 371.611 221.035 371.079 222.471C370.599 223.766 370.013 224.465 368.961 225.526L368.961 225.527C369.038 225.449 368.937 225.553 368.376 225.909C367.895 226.213 367.221 226.613 366.345 227.113C364.595 228.11 362.119 229.455 358.941 231.136C352.591 234.494 343.506 239.154 331.973 244.972C308.91 256.606 276.102 272.847 235.902 292.505C231.408 294.703 227.397 296.711 223.768 298.527C216.49 302.17 210.746 305.045 205.711 307.148C198.277 310.254 192.744 311.515 186.62 310.983C180.392 310.442 173.322 308.03 162.848 303.282C155.846 300.107 147.469 295.959 136.942 290.747C131.733 288.168 125.998 285.328 119.642 282.217C75.2856 260.501 47.5269 246.759 30.4337 237.925C21.8824 233.506 16.0399 230.335 12.1366 228.021C10.1844 226.863 8.75211 225.94 7.72362 225.199C6.66691 224.438 6.15475 223.952 5.93728 223.685C5.93725 223.685 5.93722 223.685 5.93719 223.685L3.4959 220.692L3.22695 162.163C3.19082 154.306 3.10844 147.438 3.03599 141.398C2.93773 133.205 2.85775 126.537 2.93627 120.993C3.07327 111.322 3.70273 105.592 5.33623 101.584C6.88168 97.7914 9.4199 95.3311 14.1732 92.5237C17 90.8542 20.3889 89.1793 24.6149 87.0907C27.7854 85.5238 31.4271 83.7239 35.6559 81.5189L35.656 81.5188C49.1383 74.488 69.6222 63.6623 81.1823 57.4569C136.48 27.7759 176.592 6.46389 181.049 4.38838C184.573 2.74712 186.485 2.24213 188.953 2.6168C191.704 3.03448 195.292 4.56342 202.007 7.87437ZM130.903 332.01L130.912 332.014L131.094 331.639C130.913 332.014 130.913 332.014 130.913 332.015L130.916 332.016L130.924 332.02L130.956 332.035L131.079 332.094C131.129 332.118 131.191 332.148 131.263 332.182C131.346 332.222 131.442 332.268 131.552 332.32C131.967 332.517 132.575 332.805 133.352 333.168C134.907 333.895 137.142 334.926 139.867 336.145C145.313 338.581 152.731 341.774 160.602 344.794C168.46 347.809 176.833 350.676 184.173 352.435C187.841 353.315 191.314 353.933 194.371 354.141C197.377 354.345 200.229 354.173 202.508 353.266C213.009 349.086 231.372 339.895 257.424 326.855C266.707 322.209 276.966 317.074 288.194 311.503C299.36 305.962 309.111 301.034 317.64 296.724C328.404 291.284 337.22 286.829 344.472 283.37C350.958 280.276 356.086 278.032 360.148 276.621C364.269 275.189 367.006 274.722 368.82 274.901C369.677 274.986 370.26 275.21 370.686 275.494C371.11 275.777 371.508 276.205 371.871 276.891C372.649 278.36 373.139 280.754 373.342 284.465C373.542 288.114 373.454 292.687 373.308 298.315C373.291 298.97 373.274 299.64 373.256 300.322C373.119 305.464 372.963 311.368 372.956 318.019C372.934 340.993 372.853 353.162 372.293 360.151C372.013 363.641 371.625 365.642 371.15 366.976C370.714 368.201 370.176 368.951 369.326 369.888C369.329 369.884 369.331 369.882 369.331 369.882C369.328 369.879 369.197 369.995 368.813 370.256C368.398 370.538 367.821 370.902 367.075 371.349C365.587 372.24 363.52 373.406 360.942 374.813C355.792 377.623 348.681 381.349 340.248 385.677C323.388 394.331 301.3 405.363 279.17 416.226C257.04 427.09 234.882 437.778 217.881 445.746C209.378 449.732 202.18 453.029 196.926 455.327C194.295 456.477 192.176 457.366 190.633 457.963C189.859 458.262 189.26 458.477 188.83 458.612C188.699 458.653 188.599 458.682 188.527 458.702C188.451 458.682 188.343 458.652 188.198 458.608C187.766 458.475 187.169 458.266 186.401 457.974C184.871 457.393 182.781 456.529 180.194 455.411C175.025 453.178 167.968 449.973 159.634 446.096C142.972 438.343 121.269 427.93 99.4959 417.285C77.7234 406.641 55.8949 395.772 38.9834 387.111C30.5258 382.78 23.3103 379.006 17.9506 376.092C15.2692 374.634 13.0679 373.4 11.4144 372.423C9.69324 371.406 8.73695 370.766 8.4002 370.477C8.2329 370.333 8.07391 370.197 7.92272 370.068C6.49371 368.844 5.76131 368.217 5.18232 367.3C4.58433 366.352 4.0616 364.907 3.69838 361.795C2.99694 355.786 2.99787 344.826 2.99978 322.359C2.99988 321.156 2.99999 319.92 2.99999 318.649C2.99999 316.296 2.9987 314.05 2.99748 311.906C2.99153 301.504 2.98696 293.5 3.13695 287.387C3.3206 279.901 3.73801 275.628 4.5035 273.334C4.87246 272.228 5.20287 271.967 5.26955 271.923L5.27096 271.922C5.29249 271.907 5.47343 271.782 6.1816 271.903C6.95 272.035 7.99281 272.399 9.4671 273.041C10.4244 273.457 11.4563 273.941 12.6257 274.489C13.2508 274.783 13.9152 275.094 14.6285 275.424C18.4638 277.195 47.5052 291.328 75.6428 305.045C89.6994 311.898 103.514 318.639 113.815 323.667C118.966 326.181 123.238 328.267 126.222 329.724L129.682 331.413L130.591 331.857L130.824 331.971L130.883 332L130.898 332.007L130.902 332.009C130.902 332.009 130.903 332.009 131.998 329.768L130.903 332.01Z" fill="#0F1F2C" stroke="white" stroke-width="5"/>
</svg>
