<svg width="201" height="432" viewBox="0 0 201 432" fill="none" xmlns="http://www.w3.org/2000/svg">
<path opacity="0.5" d="M184.322 405.991C184.322 410.769 181.918 414.643 178.953 414.643H22.072C19.107 414.643 16.703 410.769 16.703 405.991V153.172C16.703 148.394 19.107 144.52 22.072 144.52H178.953C181.918 144.52 184.322 148.394 184.322 153.172V405.991Z" fill="url(#paint0_linear)"/>
<path d="M184.092 431.722H16.933C7.853 431.722 0.466003 424.335 0.466003 415.255V248.097C0.466003 239.017 7.853 231.63 16.933 231.63H184.091C193.171 231.63 200.558 239.017 200.558 248.097V415.255C200.558 424.335 193.172 431.722 184.092 431.722ZM16.933 236.63C10.61 236.63 5.466 241.774 5.466 248.097V415.255C5.466 421.578 10.61 426.722 16.933 426.722H184.091C190.414 426.722 195.558 421.578 195.558 415.255V248.097C195.558 241.774 190.414 236.63 184.091 236.63H16.933Z" fill="#4AFFEB"/>
<path d="M184.322 231.622H16.703V236.638H184.322V231.622Z" fill="#7F94A9"/>
<path d="M184.322 156.43C184.322 163.057 178.949 168.43 172.322 168.43H28.703C22.076 168.43 16.703 163.057 16.703 156.43V12.811C16.703 6.184 22.076 0.811005 28.703 0.811005H172.322C178.949 0.811005 184.322 6.184 184.322 12.811V156.43Z" fill="#FF4A5E"/>
<defs>
<linearGradient id="paint0_linear" x1="100.513" y1="414.643" x2="100.513" y2="144.52" gradientUnits="userSpaceOnUse">
<stop stop-color="#4AFFEB"/>
<stop offset="1" stop-color="#FF4A5E"/>
</linearGradient>
</defs>
</svg>
