<?xml version="1.0" encoding="utf-8"?>
<!-- Generator: Adobe Illustrator 21.1.0, SVG Export Plug-In . SVG Version: 6.00 Build 0)  -->
<svg version="1.1" id="Layer_1" xmlns="http://www.w3.org/2000/svg" xmlns:xlink="http://www.w3.org/1999/xlink" x="0px" y="0px"
	 viewBox="0 0 674 181" enable-background="new 0 0 674 181" xml:space="preserve">
<g>
	<path d="M0.4,113.2l1.8-1.3c5,6.5,10.8,10.9,22.4,10.9c13,0,20.5-5.9,20.5-17.1c0-11.8-8-15.4-16.7-16.8l-8.2-1.3
		C5.9,85.1,2,77.4,2,69c0-12,8.8-17.9,22.1-17.9c11.6,0,18.2,4.1,22.1,9.9l-1.7,1.4c-4.2-6.1-10.4-9.3-20.6-9.3
		C11.7,53.2,4.2,58.4,4.2,69c0,11.1,7.5,14.9,16.4,16.3l8.2,1.3c15,2.4,18.6,10.5,18.6,18.9c0,12.8-8.9,19.3-22.7,19.3
		C12.1,124.8,5.5,119.9,0.4,113.2z"/>
	<path d="M62.9,88c0-26.1,9-36.8,25.1-36.8c9.6,0,16.6,5.6,19.7,14.4l-1.9,0.7C103,58.2,96.6,53.2,88,53.2
		c-14.8,0-22.6,10.6-22.6,31.5v6.5c0,20.9,7.9,31.5,22.6,31.5c8.7,0,15-5,17.7-13.1l1.9,0.7c-3.1,8.8-10.1,14.4-19.7,14.4
		C71.9,124.8,62.9,114.1,62.9,88z"/>
	<path d="M129.3,123.6H127V52.4h24.9c11.6,0,17.7,7.5,17.7,19.2c0,11.6-6.1,19.2-17.7,19.2H148l21.1,32.8h-2.7l-21-32.8h-16.2V123.6
		z M151.9,88.7c10.5,0,15.3-7.2,15.3-15v-4.3c0-7.8-4.8-15-15.3-15h-22.6v34.3H151.9z"/>
	<path d="M184.5,88c0-26.1,8.5-36.8,23.4-36.8s23.4,10.7,23.4,36.8s-8.5,36.8-23.4,36.8S184.5,114.1,184.5,88z M228.7,91.3v-6.5
		c0-20.9-7.3-31.5-20.9-31.5c-13.6,0-20.9,10.6-20.9,31.5v6.5c0,20.9,7.3,31.5,20.9,31.5C221.4,122.8,228.7,112.2,228.7,91.3z"/>
	<path d="M253.3,123.6V52.4h2.2v69.2h36.7v2H253.3z"/>
	<path d="M314.5,123.6V52.4h2.2v69.2h36.7v2H314.5z"/>
</g>
<path d="M0.4,118.2l1.8-1.3c5,6.5,10.8,10.9,22.4,10.9c13,0,20.5-5.9,20.5-17.1c0-11.8-8-15.4-16.7-16.8l-8.2-1.3
	C5.9,90.1,2,82.4,2,74c0-12,8.8-17.9,22.1-17.9c11.6,0,18.2,4.1,22.1,9.9l-1.7,1.4c-4.2-6.1-10.4-9.3-20.6-9.3
	C11.7,58.2,4.2,63.4,4.2,74c0,11.1,7.5,14.9,16.4,16.3l8.2,1.3c15,2.4,18.6,10.5,18.6,18.9c0,12.8-8.9,19.3-22.7,19.3
	C12.1,129.8,5.5,124.9,0.4,118.2z"/>
<path d="M62.9,93c0-26.1,9-36.8,25.1-36.8c9.6,0,16.6,5.6,19.7,14.4l-1.9,0.7C103,63.2,96.6,58.2,88,58.2
	c-14.8,0-22.6,10.6-22.6,31.5v6.5c0,20.9,7.9,31.5,22.6,31.5c8.7,0,15-5,17.7-13.1l1.9,0.7c-3.1,8.8-10.1,14.4-19.7,14.4
	C71.9,129.8,62.9,119.1,62.9,93z"/>
<path d="M129.3,128.6H127V57.4h24.9c11.6,0,17.7,7.5,17.7,19.2c0,11.6-6.1,19.2-17.7,19.2H148l21.1,32.8h-2.7l-21-32.8h-16.2V128.6z
	 M151.9,93.7c10.5,0,15.3-7.2,15.3-15v-4.3c0-7.8-4.8-15-15.3-15h-22.6v34.3H151.9z"/>
<path d="M184.5,93c0-26.1,8.5-36.8,23.4-36.8s23.4,10.7,23.4,36.8s-8.5,36.8-23.4,36.8S184.5,119.1,184.5,93z M228.7,96.3v-6.5
	c0-20.9-7.3-31.5-20.9-31.5c-13.6,0-20.9,10.6-20.9,31.5v6.5c0,20.9,7.3,31.5,20.9,31.5C221.4,127.8,228.7,117.2,228.7,96.3z"/>
<path d="M253.3,128.6V57.4h2.2v69.2h36.7v2H253.3z"/>
<path d="M314.5,128.6V57.4h2.2v69.2h36.7v2H314.5z"/>
<g>
	<defs>
		<rect id="SVGID_1_" x="437" y="51.6" width="237" height="36"/>
	</defs>
	<clipPath id="SVGID_2_">
		<use xlink:href="#SVGID_1_"  overflow="visible"/>
	</clipPath>
	<path clip-path="url(#SVGID_2_)" d="M438.7,114.2l1.8-1.3c5,6.5,10.8,10.9,22.4,10.9c13,0,20.5-5.9,20.5-17.1
		c0-11.8-8-15.4-16.7-16.8l-8.2-1.3c-14.4-2.3-18.3-10.1-18.3-18.5c0-12,8.8-17.9,22.1-17.9c11.6,0,18.2,4.1,22.1,9.9l-1.7,1.4
		c-4.2-6.1-10.4-9.3-20.6-9.3c-12.2,0-19.7,5.2-19.7,15.8c0,11.1,7.5,14.9,16.4,16.3l8.2,1.3c15,2.4,18.6,10.5,18.6,18.9
		c0,12.8-8.9,19.3-22.7,19.3C450.5,125.8,443.8,120.9,438.7,114.2z"/>
	<path clip-path="url(#SVGID_2_)" d="M505.7,56.5h-0.3v68.1h-2.1V53.4h3.3l35.5,68.1h0.3V53.4h2.1v71.2h-3.3L505.7,56.5z"/>
	<path clip-path="url(#SVGID_2_)" d="M608,124.6l-8-23.9h-30l-8,23.9h-2.3l23.8-71.2h3.1l23.8,71.2H608z M585.1,56h-0.3l-14.2,42.8
		h28.8L585.1,56z"/>
	<path clip-path="url(#SVGID_2_)" d="M626.6,124.6V53.4h24.9c11.6,0,17.7,7.5,17.7,19.2c0,11.6-6.1,19.2-17.7,19.2h-22.6v32.8H626.6
		z M628.9,89.7h22.6c10.5,0,15.3-7.2,15.3-15v-4.3c0-7.8-4.8-15-15.3-15h-22.6V89.7z"/>
</g>
<g>
	<defs>
		<rect id="SVGID_3_" x="437" y="92.6" width="237" height="36"/>
	</defs>
	<clipPath id="SVGID_4_">
		<use xlink:href="#SVGID_3_"  overflow="visible"/>
	</clipPath>
	<path clip-path="url(#SVGID_4_)" d="M438.7,117.2l1.8-1.3c5,6.5,10.8,10.9,22.4,10.9c13,0,20.5-5.9,20.5-17.1
		c0-11.8-8-15.4-16.7-16.8l-8.2-1.3c-14.4-2.3-18.3-10.1-18.3-18.5c0-12,8.8-17.9,22.1-17.9c11.6,0,18.2,4.1,22.1,9.9l-1.7,1.4
		c-4.2-6.1-10.4-9.3-20.6-9.3c-12.2,0-19.7,5.2-19.7,15.8c0,11.1,7.5,14.9,16.4,16.3l8.2,1.3c15,2.4,18.6,10.5,18.6,18.9
		c0,12.8-8.9,19.3-22.7,19.3C450.5,128.8,443.8,123.9,438.7,117.2z"/>
	<path clip-path="url(#SVGID_4_)" d="M505.7,59.5h-0.3v68.1h-2.1V56.4h3.3l35.5,68.1h0.3V56.4h2.1v71.2h-3.3L505.7,59.5z"/>
	<path clip-path="url(#SVGID_4_)" d="M608,127.6l-8-23.9h-30l-8,23.9h-2.3l23.8-71.2h3.1l23.8,71.2H608z M585.1,59h-0.3l-14.2,42.8
		h28.8L585.1,59z"/>
	<path clip-path="url(#SVGID_4_)" d="M626.6,127.6V56.4h24.9c11.6,0,17.7,7.5,17.7,19.2c0,11.6-6.1,19.2-17.7,19.2h-22.6v32.8H626.6
		z M628.9,92.7h22.6c10.5,0,15.3-7.2,15.3-15v-4.3c0-7.8-4.8-15-15.3-15h-22.6V92.7z"/>
</g>
</svg>
