<svg width="376" height="462" viewBox="0 0 376 462" fill="none" xmlns="http://www.w3.org/2000/svg">
<path d="M201.603 7.87437L201.603 7.87446C208.102 11.0782 222.196 18.4272 232.91 24.2L232.91 24.2C243.636 29.9788 256.919 37.0868 262.428 39.9959C267.919 42.8953 283.887 51.4295 297.913 58.9588C311.942 66.4911 332.648 77.5153 343.93 83.459C347.491 85.3349 350.568 86.8725 353.257 88.2165C357.112 90.1428 360.171 91.6713 362.716 93.2276C366.815 95.7346 369.031 98.0126 370.412 101.66C371.881 105.541 372.476 111.143 372.652 120.547C372.756 126.112 372.715 132.846 372.664 141.157C372.629 146.823 372.59 153.221 372.589 160.481C372.587 190.594 372.547 206.012 371.943 214.505C371.64 218.76 371.206 221.035 370.674 222.471C370.196 223.762 369.613 224.46 368.568 225.515C368.62 225.462 368.501 225.574 367.971 225.909C367.491 226.213 366.817 226.613 365.94 227.113C364.19 228.11 361.714 229.455 358.537 231.136C352.187 234.494 343.101 239.154 331.568 244.972C308.506 256.606 275.697 272.847 235.497 292.505C231.003 294.703 226.993 296.71 223.364 298.527C216.086 302.169 210.341 305.045 205.307 307.148C197.873 310.254 192.339 311.515 186.215 310.983C179.987 310.442 172.917 308.03 162.444 303.282C155.441 300.107 147.064 295.959 136.538 290.747C131.328 288.168 125.593 285.328 119.238 282.217C74.8809 260.501 47.1223 246.759 30.029 237.925C21.4778 233.506 15.6352 230.335 11.7319 228.021C9.77969 226.863 8.34744 225.94 7.31896 225.199C6.26224 224.438 5.75008 223.952 5.53262 223.685C5.53259 223.685 5.53256 223.685 5.53253 223.685L3.09124 220.692L2.82229 162.163C2.78615 154.306 2.70377 147.438 2.63133 141.398C2.53307 133.205 2.45308 126.537 2.53161 120.993C2.66861 111.322 3.29806 105.592 4.93156 101.584C6.47702 97.7914 9.01523 95.3311 13.7686 92.5237C16.5953 90.8542 19.9843 89.1793 24.2102 87.0907C27.3807 85.5238 31.0224 83.7239 35.2512 81.5189L35.2513 81.5188C48.7337 74.488 69.2175 63.6623 80.7776 57.4569C136.075 27.7759 176.188 6.46389 180.644 4.38838C184.169 2.74712 186.081 2.24213 188.549 2.6168C191.3 3.03448 194.888 4.56342 201.603 7.87437ZM130.498 332.01L130.508 332.014L130.689 331.639C130.508 332.014 130.508 332.014 130.509 332.015L130.511 332.016L130.519 332.02L130.551 332.035L130.674 332.094C130.724 332.118 130.786 332.148 130.859 332.182C130.941 332.222 131.037 332.268 131.148 332.32C131.562 332.517 132.17 332.805 132.948 333.168C134.503 333.895 136.737 334.926 139.462 336.145C144.908 338.581 152.327 341.774 160.198 344.794C168.056 347.809 176.429 350.676 183.768 352.435C187.436 353.315 190.909 353.933 193.966 354.141C196.972 354.345 199.824 354.173 202.103 353.266C212.604 349.086 230.967 339.895 257.019 326.855C266.302 322.209 276.562 317.074 287.79 311.503C298.955 305.962 308.707 301.034 317.235 296.724C327.999 291.284 336.815 286.829 344.067 283.37C350.554 280.276 355.681 278.032 359.743 276.621C363.864 275.189 366.601 274.722 368.415 274.901C369.273 274.986 369.855 275.21 370.281 275.494C370.705 275.777 371.103 276.205 371.466 276.891C372.244 278.36 372.734 280.754 372.937 284.465C373.137 288.114 373.05 292.687 372.904 298.315C372.887 298.97 372.869 299.64 372.851 300.322C372.715 305.464 372.558 311.368 372.551 318.019C372.529 340.993 372.449 353.162 371.888 360.151C371.608 363.641 371.22 365.642 370.745 366.976C370.309 368.202 369.771 368.952 368.92 369.889C368.924 369.885 368.926 369.882 368.926 369.882C368.924 369.879 368.792 369.995 368.408 370.256C367.993 370.538 367.416 370.902 366.67 371.349C365.182 372.24 363.115 373.406 360.538 374.813C355.387 377.623 348.276 381.349 339.844 385.677C322.984 394.331 300.895 405.363 278.765 416.226C256.636 427.09 234.477 437.778 217.476 445.746C208.973 449.732 201.775 453.029 196.521 455.327C193.891 456.477 191.771 457.366 190.228 457.963C189.454 458.262 188.856 458.477 188.426 458.612C188.294 458.653 188.194 458.682 188.122 458.702C188.046 458.682 187.938 458.652 187.794 458.608C187.361 458.475 186.764 458.266 185.997 457.974C184.467 457.393 182.376 456.529 179.789 455.411C174.62 453.178 167.563 449.973 159.23 446.096C142.568 438.343 120.864 427.93 99.0913 417.285C77.3187 406.641 55.4902 395.772 38.5787 387.111C30.1212 382.78 22.9056 379.006 17.5459 376.092C14.8645 374.634 12.6633 373.4 11.0097 372.423C9.28857 371.406 8.33229 370.766 7.99554 370.477C7.82824 370.333 7.66925 370.197 7.51806 370.068C6.08905 368.844 5.35665 368.217 4.77766 367.3C4.17966 366.352 3.65694 364.907 3.29371 361.795C2.59228 355.786 2.59321 344.826 2.59512 322.359C2.59522 321.156 2.59532 319.92 2.59532 318.649C2.59532 316.296 2.59404 314.05 2.59281 311.906C2.58687 301.504 2.58229 293.5 2.73229 287.387C2.91594 279.901 3.33335 275.628 4.09884 273.334C4.46779 272.228 4.79821 271.967 4.86489 271.923L4.86629 271.922C4.88783 271.907 5.06877 271.782 5.77694 271.903C6.54534 272.035 7.58815 272.399 9.06244 273.041C10.0197 273.457 11.0516 273.941 12.221 274.489C12.8461 274.783 13.5105 275.094 14.2239 275.424C18.0591 277.195 47.1005 291.328 75.2382 305.045C89.2948 311.898 103.11 318.639 113.411 323.667C118.561 326.181 122.833 328.267 125.817 329.724L129.277 331.413L130.186 331.857L130.419 331.971L130.478 332L130.493 332.007L130.497 332.009C130.498 332.009 130.498 332.009 131.593 329.768L130.498 332.01Z" fill="black" stroke="white" stroke-width="5"/>
</svg>
