<?xml version="1.0" encoding="utf-8"?>
<!-- Generator: Adobe Illustrator 17.0.0, SVG Export Plug-In . SVG Version: 6.00 Build 0)  -->
<!DOCTYPE svg PUBLIC "-//W3C//DTD SVG 1.1//EN" "http://www.w3.org/Graphics/SVG/1.1/DTD/svg11.dtd">
<svg version="1.1" id="Layer_1" xmlns="http://www.w3.org/2000/svg" xmlns:xlink="http://www.w3.org/1999/xlink" x="0px" y="0px"
	 width="1911.979px" height="1911.979px" viewBox="339.616 442.517 1911.979 1911.979"
	 enable-background="new 339.616 442.517 1911.979 1911.979" xml:space="preserve">
<g>
	<g>
		<g>
			<path d="M1417.955,1625.001c-4.086-4.086-10.691-4.086-14.777,0l-107.572,107.571l-107.572-107.571
				c-4.086-4.086-10.691-4.086-14.777,0c-4.086,4.086-4.086,10.691,0,14.777l114.96,114.96c2.038,2.038,4.713,3.062,7.389,3.062
				s5.351-1.024,7.389-3.062l114.96-114.96C1422.041,1635.692,1422.041,1629.087,1417.955,1625.001z"/>
		</g>
	</g>
	<path fill="none" stroke="#000000" stroke-width="30" stroke-miterlimit="10" d="M1550.236,1942.329c0,1.199-0.972,2.17-2.17,2.17
		h-504.92c-1.199,0-2.17-0.972-2.17-2.17V1437.41c0-1.199,0.972-2.17,2.17-2.17h504.919c1.199,0,2.17,0.972,2.17,2.17
		L1550.236,1942.329L1550.236,1942.329z"/>
	<path fill="none" stroke="#000000" stroke-width="30" stroke-miterlimit="10" d="M2132.96,1942.329c0,1.199-0.972,2.17-2.17,2.17
		H1625.87c-1.199,0-2.17-0.972-2.17-2.17V1437.41c0-1.199,0.972-2.17,2.17-2.17h504.919c1.199,0,2.17,0.972,2.17,2.17
		L2132.96,1942.329L2132.96,1942.329z"/>
	<path fill="none" stroke="#000000" stroke-width="30" stroke-miterlimit="10" d="M967.512,1942.329c0,1.199-0.972,2.17-2.17,2.17
		h-504.92c-1.199,0-2.17-0.972-2.17-2.17V1437.41c0-1.199,0.972-2.17,2.17-2.17h504.919c1.199,0,2.17,0.972,2.17,2.17
		L967.512,1942.329L967.512,1942.329z"/>
	<path fill="none" stroke="#000000" stroke-width="30" stroke-miterlimit="10" d="M1550.236,1359.605c0,1.199-0.972,2.17-2.17,2.17
		h-504.92c-1.199,0-2.17-0.972-2.17-2.17v-504.92c0-1.199,0.972-2.17,2.17-2.17h504.919c1.199,0,2.17,0.972,2.17,2.17
		L1550.236,1359.605L1550.236,1359.605z"/>
	<g>
		<g>
			<path d="M777.75,1812.218c4.086-4.086,4.086-10.691,0-14.777l-107.571-107.572l107.571-107.572
				c4.086-4.086,4.086-10.691,0-14.777c-4.086-4.086-10.691-4.086-14.777,0l-114.96,114.96c-2.038,2.038-3.062,4.713-3.062,7.389
				s1.024,5.351,3.062,7.389l114.96,114.96C767.058,1816.304,773.664,1816.304,777.75,1812.218z"/>
		</g>
	</g>
	<g>
		<g>
			<path d="M1813.462,1567.52c-4.086,4.086-4.086,10.691,0,14.777l107.571,107.572l-107.571,107.571
				c-4.086,4.086-4.086,10.691,0,14.777c4.086,4.086,10.691,4.086,14.777,0l114.96-114.96c2.038-2.038,3.062-4.713,3.062-7.389
				s-1.024-5.351-3.062-7.389l-114.96-114.96C1824.154,1563.434,1817.548,1563.434,1813.462,1567.52z"/>
		</g>
	</g>
	<g>
		<g>
			<path d="M1173.257,1172.013c4.086,4.086,10.691,4.086,14.777,0l107.572-107.572l107.571,107.572
				c4.086,4.086,10.691,4.086,14.777,0c4.086-4.086,4.086-10.691,0-14.777l-114.96-114.96c-2.038-2.038-4.713-3.062-7.389-3.062
				s-5.351,1.024-7.389,3.062l-114.96,114.96C1169.171,1161.321,1169.171,1167.927,1173.257,1172.013z"/>
		</g>
	</g>
</g>
</svg>
