<?xml version="1.0" encoding="utf-8"?>
<!-- Generator: Adobe Illustrator 17.0.0, SVG Export Plug-In . SVG Version: 6.00 Build 0)  -->
<!DOCTYPE svg PUBLIC "-//W3C//DTD SVG 1.1//EN" "http://www.w3.org/Graphics/SVG/1.1/DTD/svg11.dtd">
<svg version="1.1" id="Layer_1" xmlns="http://www.w3.org/2000/svg" xmlns:xlink="http://www.w3.org/1999/xlink" x="0px" y="0px"
	 width="677.024px" height="677.024px" viewBox="0 0 677.024 677.024" enable-background="new 0 0 677.024 677.024"
	 xml:space="preserve">
<g>
	
		<linearGradient id="SVGID_1_" gradientUnits="userSpaceOnUse" x1="-1450.4274" y1="660.0092" x2="-1450.4274" y2="389.8862" gradientTransform="matrix(1 0 0 1 1788.9399 -164.3662)">
		<stop  offset="0" style="stop-color:#FFFFFF"/>
		<stop  offset="0" style="stop-color:#4AFFEB"/>
		<stop  offset="1" style="stop-color:#FF4A5E"/>
		<stop  offset="1" style="stop-color:#000000"/>
	</linearGradient>
	<path opacity="0.5" fill="url(#SVGID_1_)" enable-background="new    " d="M422.322,486.991c0,4.778-2.404,8.652-5.369,8.652
		H260.072c-2.965,0-5.369-3.874-5.369-8.652V234.172c0-4.778,2.404-8.652,5.369-8.652h156.881c2.965,0,5.369,3.874,5.369,8.652
		V486.991z"/>
	<g>
		<path fill="#4AFFEB" d="M422.092,512.722H254.933c-9.08,0-16.467-7.387-16.467-16.467V329.097c0-9.08,7.387-16.467,16.467-16.467
			h167.158c9.08,0,16.467,7.387,16.467,16.467v167.158C438.558,505.335,431.172,512.722,422.092,512.722z M254.933,317.63
			c-6.323,0-11.467,5.144-11.467,11.467v167.158c0,6.323,5.144,11.467,11.467,11.467h167.158c6.323,0,11.467-5.144,11.467-11.467
			V329.097c0-6.323-5.144-11.467-11.467-11.467L254.933,317.63L254.933,317.63z"/>
	</g>
	<rect x="254.703" y="312.622" fill="#7F94A9" width="167.619" height="5.016"/>
	<rect x="197.17" y="555.614" fill="none" width="282.685" height="31.087"/>
	<g enable-background="new    ">
		<path fill="#1C1C1C" d="M200.25,579.013h3.8c0.16,0.774,0.653,1.4,1.48,1.881c0.826,0.479,1.84,0.72,3.04,0.72h1.12
			c1.44,0,2.56-0.3,3.36-0.9c0.8-0.6,1.2-1.406,1.2-2.42c0-1.733-1.227-2.786-3.68-3.16l-3.32-0.479c-2.16-0.32-3.774-1-4.84-2.04
			c-1.067-1.04-1.6-2.493-1.6-4.36c0-1.973,0.7-3.506,2.1-4.6c1.4-1.094,3.353-1.641,5.86-1.641h1.12c1.066,0,2.053,0.134,2.96,0.4
			c0.906,0.267,1.706,0.646,2.4,1.14c0.693,0.494,1.26,1.08,1.7,1.761c0.44,0.68,0.727,1.434,0.86,2.26h-3.8
			c-0.16-0.693-0.614-1.26-1.36-1.7c-0.747-0.44-1.667-0.66-2.76-0.66h-1.12c-1.36,0-2.42,0.267-3.18,0.8
			c-0.76,0.534-1.14,1.334-1.14,2.4c0,0.854,0.26,1.5,0.78,1.94c0.52,0.439,1.366,0.739,2.54,0.899l3.32,0.48
			c2.373,0.347,4.1,1.04,5.18,2.08s1.62,2.52,1.62,4.439c0,2.054-0.714,3.66-2.14,4.82c-1.427,1.16-3.447,1.74-6.06,1.74h-1.12
			c-2.32,0-4.234-0.526-5.74-1.58C201.323,582.18,200.463,580.774,200.25,579.013z"/>
		<path fill="#1C1C1C" d="M234.489,584.814c-1.36,0-2.58-0.2-3.66-0.601c-1.08-0.399-2-0.973-2.76-1.72
			c-0.76-0.746-1.347-1.653-1.76-2.72c-0.414-1.066-0.62-2.254-0.62-3.561v-5.6c0-1.307,0.206-2.493,0.62-3.561
			c0.413-1.065,1-1.973,1.76-2.72c0.76-0.746,1.68-1.32,2.76-1.72c1.08-0.4,2.3-0.601,3.66-0.601c2.426,0,4.42,0.66,5.98,1.98
			c1.56,1.32,2.5,3.127,2.82,5.42h-3.6c-0.187-1.28-0.754-2.3-1.7-3.06c-0.947-0.761-2.114-1.141-3.5-1.141
			c-1.6,0-2.867,0.48-3.8,1.44c-0.934,0.96-1.4,2.279-1.4,3.96v5.6c0,1.681,0.46,3,1.38,3.96s2.193,1.44,3.82,1.44
			c1.386,0,2.553-0.38,3.5-1.141c0.946-0.76,1.513-1.779,1.7-3.06h3.6c-0.347,2.32-1.3,4.134-2.86,5.44
			C238.869,584.16,236.889,584.814,234.489,584.814z"/>
		<path fill="#1C1C1C" d="M255.049,562.413v3.8h0.32c0.346-1.306,1.066-2.333,2.16-3.08c1.093-0.746,2.44-1.12,4.04-1.12
			c2.32,0,4.14,0.728,5.46,2.181c1.32,1.453,1.98,3.446,1.98,5.979v1.24h-3.6v-0.8c0-1.733-0.434-3.073-1.3-4.021
			c-0.867-0.946-2.1-1.42-3.7-1.42c-1.574,0-2.827,0.487-3.76,1.46c-0.934,0.974-1.4,2.3-1.4,3.98v13.8h-3.6v-22H255.049z"/>
		<path fill="#1C1C1C" d="M284.169,584.814c-1.36,0-2.58-0.2-3.66-0.601c-1.08-0.399-2-0.973-2.76-1.72
			c-0.76-0.746-1.347-1.653-1.76-2.72c-0.414-1.066-0.62-2.254-0.62-3.561v-5.6c0-1.333,0.206-2.526,0.62-3.58
			c0.413-1.054,1-1.953,1.76-2.7c0.76-0.746,1.68-1.32,2.76-1.72c1.08-0.4,2.3-0.601,3.66-0.601c2.72,0,4.866,0.761,6.44,2.28
			c1.573,1.521,2.36,3.614,2.36,6.28v5.64c0,2.667-0.78,4.767-2.34,6.3C289.069,584.047,286.915,584.814,284.169,584.814z
			 M278.969,576.213c0,1.681,0.46,3,1.38,3.96c0.92,0.96,2.193,1.44,3.82,1.44c1.6,0,2.866-0.48,3.8-1.44
			c0.933-0.96,1.4-2.279,1.4-3.96v-5.6c0-1.681-0.467-3-1.4-3.96c-0.934-0.96-2.2-1.44-3.8-1.44s-2.867,0.48-3.8,1.44
			c-0.934,0.96-1.4,2.279-1.4,3.96V576.213z"/>
		<path fill="#1C1C1C" d="M298.768,558.493v-3.28h10.88v22.8c0,0.987,0.266,1.754,0.8,2.301c0.533,0.547,1.267,0.819,2.2,0.819h6.52
			v3.28h-6.52c-2.054,0-3.667-0.566-4.84-1.7c-1.174-1.133-1.76-2.7-1.76-4.7v-19.52H298.768z"/>
		<path fill="#1C1C1C" d="M323.768,558.493v-3.28h10.88v22.8c0,0.987,0.266,1.754,0.8,2.301c0.533,0.547,1.267,0.819,2.2,0.819h6.52
			v3.28h-6.52c-2.054,0-3.667-0.566-4.84-1.7c-1.174-1.133-1.76-2.7-1.76-4.7v-19.52H323.768z"/>
		<path fill="#1C1C1C" d="M351.167,569.614h16v3.2h-16V569.614z"/>
		<path fill="#1C1C1C" d="M375.247,579.013h3.8c0.16,0.774,0.653,1.4,1.479,1.881c0.826,0.479,1.841,0.72,3.04,0.72h1.12
			c1.44,0,2.561-0.3,3.36-0.9c0.8-0.6,1.2-1.406,1.2-2.42c0-1.733-1.228-2.786-3.681-3.16l-3.319-0.479
			c-2.16-0.32-3.774-1-4.84-2.04c-1.067-1.04-1.601-2.493-1.601-4.36c0-1.973,0.7-3.506,2.101-4.6
			c1.399-1.094,3.353-1.641,5.859-1.641h1.12c1.066,0,2.053,0.134,2.96,0.4c0.906,0.267,1.706,0.646,2.4,1.14
			c0.692,0.494,1.26,1.08,1.699,1.761c0.44,0.68,0.727,1.434,0.86,2.26h-3.8c-0.16-0.693-0.614-1.26-1.36-1.7
			c-0.747-0.44-1.667-0.66-2.76-0.66h-1.12c-1.359,0-2.42,0.267-3.18,0.8c-0.76,0.534-1.141,1.334-1.141,2.4
			c0,0.854,0.261,1.5,0.78,1.94c0.521,0.439,1.366,0.739,2.54,0.899l3.32,0.48c2.373,0.347,4.1,1.04,5.18,2.08s1.62,2.52,1.62,4.439
			c0,2.054-0.714,3.66-2.14,4.82c-1.427,1.16-3.447,1.74-6.061,1.74h-1.12c-2.319,0-4.233-0.526-5.739-1.58
			C376.321,582.18,375.46,580.774,375.247,579.013z"/>
		<path fill="#1C1C1C" d="M400.687,562.413h3.399v3.8h0.32c0.347-1.359,1.04-2.399,2.08-3.12c1.04-0.72,2.36-1.08,3.96-1.08
			c1.146,0,2.166,0.194,3.06,0.58c0.894,0.387,1.653,0.927,2.28,1.62c0.626,0.694,1.101,1.514,1.42,2.46
			c0.32,0.947,0.48,1.98,0.48,3.101v14.64h-3.601v-14.04c0-1.68-0.427-2.986-1.279-3.92c-0.854-0.934-2.04-1.4-3.561-1.4
			c-1.52,0-2.727,0.5-3.62,1.5s-1.34,2.354-1.34,4.061v13.8h-3.6V562.413z"/>
		<path fill="#1C1C1C" d="M424.686,578.013c0-1.04,0.181-1.979,0.54-2.819c0.36-0.84,0.88-1.554,1.561-2.141
			c0.68-0.586,1.5-1.04,2.46-1.359c0.96-0.32,2.04-0.48,3.239-0.48h6.561v-1.8c0-1.36-0.447-2.42-1.34-3.18
			c-0.894-0.761-2.181-1.141-3.86-1.141c-1.227,0-2.273,0.228-3.14,0.681c-0.867,0.453-1.447,1.08-1.74,1.88h-3.6
			c0.373-1.733,1.326-3.106,2.859-4.12s3.434-1.521,5.7-1.521c2.72,0,4.854,0.634,6.4,1.9c1.546,1.267,2.319,3.034,2.319,5.3v15.2
			h-3.279v-4.2h-0.32c-0.347,1.414-1.16,2.534-2.44,3.36c-1.279,0.827-2.84,1.24-4.68,1.24c-2.214,0-3.974-0.613-5.28-1.841
			C425.339,581.747,424.686,580.093,424.686,578.013z M428.286,577.933c0,1.228,0.386,2.188,1.159,2.881s1.867,1.04,3.28,1.04
			c0.906,0,1.746-0.12,2.521-0.36c0.772-0.24,1.439-0.58,2-1.021c0.56-0.439,1-0.953,1.319-1.54c0.32-0.586,0.48-1.226,0.48-1.92v-3
			h-6.48c-1.333,0-2.38,0.348-3.14,1.04C428.666,575.747,428.286,576.707,428.286,577.933z"/>
		<path fill="#1C1C1C" d="M450.686,562.413h3.399v3.8h0.32c0.347-1.333,1.053-2.366,2.12-3.1c1.066-0.733,2.413-1.101,4.04-1.101
			c1.12,0,2.133,0.2,3.04,0.601c0.906,0.399,1.68,0.967,2.319,1.7c0.641,0.733,1.141,1.634,1.5,2.699
			c0.36,1.067,0.54,2.268,0.54,3.601v5.6c0,1.334-0.18,2.534-0.54,3.601c-0.359,1.066-0.859,1.967-1.5,2.699
			c-0.64,0.734-1.413,1.301-2.319,1.7c-0.907,0.4-1.92,0.601-3.04,0.601c-1.627,0-2.974-0.367-4.04-1.101
			c-1.067-0.733-1.773-1.766-2.12-3.1h-0.32c0.026,0.453,0.066,0.906,0.12,1.359c0.026,0.4,0.047,0.814,0.061,1.24
			c0.013,0.427,0.02,0.827,0.02,1.2v6.8h-3.6V562.413z M454.285,570.614v5.6c0,1.681,0.446,3.014,1.34,4
			c0.894,0.987,2.087,1.48,3.58,1.48c1.601,0,2.86-0.493,3.78-1.48c0.92-0.986,1.38-2.319,1.38-4v-5.6c0-1.733-0.454-3.08-1.36-4.04
			s-2.174-1.44-3.8-1.44c-1.493,0-2.687,0.494-3.58,1.48S454.285,568.933,454.285,570.614z"/>
	</g>
	<path fill="#FF4A5E" d="M422.322,237.43c0,6.627-5.373,12-12,12H266.703c-6.627,0-12-5.373-12-12V93.811c0-6.627,5.373-12,12-12
		h143.619c6.627,0,12,5.373,12,12L422.322,237.43L422.322,237.43z"/>
</g>
</svg>
