<?xml version="1.0" encoding="utf-8"?>
<!-- Generator: Adobe Illustrator 17.0.0, SVG Export Plug-In . SVG Version: 6.00 Build 0)  -->
<!DOCTYPE svg PUBLIC "-//W3C//DTD SVG 1.1//EN" "http://www.w3.org/Graphics/SVG/1.1/DTD/svg11.dtd">
<svg version="1.1" id="Layer_1"
	xmlns="http://www.w3.org/2000/svg"
	xmlns:xlink="http://www.w3.org/1999/xlink" x="0px" y="0px" width="207.9px" height="250.922px" viewBox="251.907 252.488 207.9 250.922" enable-background="new 251.907 252.488 207.9 250.922" xml:space="preserve">
	<path id="path833" fill="#e6e6e6" d="M459.807,335.693c0-16.363-5.436-31.472-16.112-43.626c6.3-19.708-0.864-36.35-1.812-38.915
	c-17.785-1.617-36.239,11.624-39.974,14.44c-10.955-2.955-23.416-4.572-37.41-4.572c-13.882,0-26.315,1.589-37.215,4.516
	c-1.561-1.227-21.437-16.642-40.588-14.914c-0.976,2.537-8.307,19.569-1.617,39.556c-10.537,12.154-15.917,27.179-15.917,43.459
	c0,33.646,19.346,61.941,65.648,70.192c-0.084,0.084-0.139,0.139-0.223,0.223h0.335c-6.021,4.544-10.091,10.983-12.015,19.597
	c-6.941,1.617-10.844,4.07-18.315,3.791c-24.447-0.864-25.479-35.403-52.686-28.852c2.091,7.443,9.255,8.168,13.743,13.659
	c4.516,5.492,5.436,12.795,9.171,18.984c8.335,13.799,25.395,18.816,47.362,14.44c-1.505,13.185,2.676,26.036-1.533,34.957
	c-3.011,6.411-10.091,5.296-11.457,12.154c10.37,4.126,24.029,0.112,28.266-9.115c7.359-16.029-5.77-47.278,6.105-56.226
	c-2.592,19.597,4.126,43.793-1.533,60.045c-1.923,5.547-7.025,7.61-6.105,13.659c31.11,3.875,25.061-35.709,25.2-64.589
	c0.028-3.289-2.369-11.011,3.066-11.401c5.854,29.549-9.116,79.614,26.733,75.99c1.561-5.687-4.126-8.14-6.105-14.44
	c-5.018-16.057-0.028-41.285-0.753-59.265c10.258,11.178,0.836,36.713,4.572,53.188c2.174,9.617,21.297,19.764,29.019,10.649
	c-3.15-4.85-7.833-4.99-10.704-10.649c-5.993-11.819,0.084-37.744-2.286-55.473c-1.505-11.346-7.527-14.412-11.011-21.13h0.39
	c-0.056-0.056-0.084-0.084-0.139-0.139C440.378,397.746,459.807,369.396,459.807,335.693L459.807,335.693z"/>
</svg>
