<svg width="376" height="462" viewBox="0 0 376 462" fill="none" xmlns="http://www.w3.org/2000/svg">
<path fill-rule="evenodd" clip-rule="evenodd" d="M202.708 5.63212C209.246 8.85512 223.37 16.2201 234.095 21.9991C244.82 27.7771 258.095 34.8811 263.595 37.7851C269.095 40.6891 285.07 49.2271 299.095 56.7561C313.12 64.2861 333.82 75.3071 345.095 81.2471C378.842 99.0271 375.096 89.1311 375.089 160.481C375.084 220.592 374.938 222.638 370.332 227.286C367.872 229.769 317.003 255.43 236.595 294.751C183.073 320.925 194.679 321.933 118.138 284.462C29.4343 241.036 7.00432 229.444 3.59532 225.265L0.595322 221.587L0.322312 162.174C-0.0166879 88.4651 -4.47867 99.4161 34.0953 79.3021C47.5703 72.2751 68.0453 61.4541 79.5953 55.2541C134.833 25.6051 175.047 4.23714 179.588 2.12214C186.918 -1.29086 189.446 -0.906885 202.708 5.63212ZM15.2723 273.154C23.0053 276.726 79.6323 304.284 131.595 329.763C184.92 355.91 187.062 356.562 201.178 350.943C205.348 349.283 243.823 330.527 286.678 309.263C387.409 259.28 375.111 258.061 375.051 318.021C375.006 363.862 374.738 367.204 370.755 371.587C365.799 377.043 194.217 461.271 188.131 461.235C181.608 461.197 14.8743 379.683 6.36632 372.373C-0.0876822 366.827 0.0953224 368.392 0.0953224 318.649C0.0953224 263.696 -0.611677 265.816 15.2723 273.154Z" fill="#0F1F2C"/>
</svg>
