<?xml version="1.0" encoding="utf-8"?>
<!-- Generator: Adobe Illustrator 17.0.0, SVG Export Plug-In . SVG Version: 6.00 Build 0)  -->
<!DOCTYPE svg PUBLIC "-//W3C//DTD SVG 1.1//EN" "http://www.w3.org/Graphics/SVG/1.1/DTD/svg11.dtd">
<svg version="1.1" id="Layer_1"
	xmlns="http://www.w3.org/2000/svg"
	xmlns:xlink="http://www.w3.org/1999/xlink" x="0px" y="0px" width="532.782px" height="532.782px" viewBox="0 0 532.782 532.782" enable-background="new 0 0 532.782 532.782" xml:space="preserve">
	<g>
		<path fill="#FFFFFF" d="M327.707,266.204c0.068,0,0.136,0,0.203,0c0-14.491,0.116-28.983-0.063-43.471
		c-0.063-5.134-0.375-10.352-1.377-15.371c-6.044-30.254-34.025-50.601-65.859-48.134c-29.55,2.291-54.416,27.393-55.123,57.386
		c-0.784,33.291-1.011,66.639,0.018,99.916c0.997,32.259,28.495,57.242,60.935,57.381c32.195,0.138,59.557-25.083,61.122-57.253
		C328.379,299.877,327.707,283.024,327.707,266.204z M266.249,102.615c1.703,1.595,2.925,2.68,4.081,3.833
		c7.782,7.764,15.497,15.594,23.343,23.292c3.727,3.657,8.726,3.019,9.333-1.285c0.282-1.997-1.115-4.808-2.642-6.388
		c-9.489-9.819-19.209-19.415-28.899-29.039c-3.861-3.835-6.092-3.781-10.103,0.206c-9.686,9.628-19.302,19.326-29.001,28.941
		c-2.616,2.593-4.511,5.458-1.477,8.601c3.303,3.422,6.248,1.281,8.935-1.453C248.453,120.537,257.143,111.808,266.249,102.615z
		 M266.566,430.188c-9.368-9.371-18.209-18.177-27.001-27.032c-2.612-2.631-5.503-4.38-8.598-1.249
		c-3.079,3.115-1.328,6,1.302,8.611c9.691,9.623,19.316,19.314,29,28.944c4.192,4.168,6.26,4.166,10.466-0.006
		c7.685-7.625,15.322-15.3,22.976-22.956c2.355-2.356,4.764-4.662,7.031-7.099c2.093-2.25,2.434-4.804,0.235-7.144
		c-2.385-2.536-5.016-2.214-7.496-0.009c-1.119,0.994-2.146,2.092-3.204,3.154C283.179,413.519,275.084,421.641,266.566,430.188z"/>
		<path fill="#FFFFFF" d="M327.707,266.204c0,16.82,0.673,33.673-0.144,50.454c-1.565,32.17-28.927,57.391-61.122,57.253
		c-32.44-0.139-59.938-25.122-60.935-57.381c-1.029-33.277-0.801-66.625-0.018-99.916c0.706-29.994,25.573-55.096,55.123-57.386
		c31.834-2.468,59.815,17.879,65.859,48.134c1.003,5.019,1.314,10.238,1.377,15.371c0.179,14.488,0.063,28.981,0.063,43.471
		C327.842,266.204,327.775,266.204,327.707,266.204z M215.438,266.161c-0.014,0-0.028,0-0.042,0c0,9.326-0.059,18.653,0.017,27.978
		c0.071,8.653-0.688,17.456,0.617,25.931c4.241,27.553,27.581,45.38,55.618,43.311c25.692-1.896,45.866-24.412,45.958-51.555
		c0.104-30.476,0.235-60.955-0.151-91.426c-0.082-6.502-1.41-13.335-3.759-19.398c-8.635-22.291-32.462-35.363-55.522-31.175
		c-24.757,4.496-42.291,24.6-42.69,49.373C215.233,234.849,215.438,250.507,215.438,266.161z"/>
		<path fill="#FFFFFF" d="M266.249,102.615c-9.106,9.193-17.796,17.923-26.43,26.707c-2.687,2.734-5.632,4.875-8.935,1.453
		c-3.034-3.143-1.139-6.007,1.477-8.601c9.699-9.615,19.315-19.313,29.001-28.941c4.011-3.987,6.242-4.04,10.103-0.206
		c9.69,9.623,19.41,19.22,28.899,29.039c1.527,1.58,2.923,4.391,2.642,6.388c-0.607,4.304-5.607,4.941-9.333,1.285
		c-7.846-7.698-15.562-15.528-23.343-23.292C269.175,105.295,267.952,104.21,266.249,102.615z"/>
		<path fill="#FFFFFF" d="M266.566,430.188c8.519-8.547,16.613-16.669,24.71-24.789c1.058-1.061,2.086-2.159,3.204-3.154
		c2.48-2.205,5.111-2.527,7.496,0.009c2.2,2.34,1.859,4.895-0.235,7.144c-2.268,2.437-4.677,4.744-7.031,7.099
		c-7.654,7.657-15.29,15.331-22.976,22.956c-4.205,4.173-6.274,4.174-10.466,0.006c-9.685-9.63-19.309-19.321-29-28.944
		c-2.63-2.611-4.381-5.496-1.302-8.611c3.095-3.131,5.987-1.381,8.598,1.249C248.357,412.011,257.198,420.817,266.566,430.188z"/>
		<path fill="#FFFFFF" d="M215.438,266.161c0-15.654-0.205-31.312,0.047-46.962c0.399-24.773,17.933-44.877,42.69-49.373
		c23.061-4.188,46.887,8.885,55.522,31.175c2.349,6.063,3.677,12.897,3.759,19.398c0.386,30.471,0.254,60.95,0.151,91.426
		c-0.092,27.142-20.266,49.659-45.958,51.555c-28.038,2.069-51.377-15.758-55.618-43.311c-1.305-8.475-0.546-17.277-0.617-25.931
		c-0.076-9.325-0.017-18.652-0.017-27.978C215.41,266.161,215.424,266.161,215.438,266.161z M271.563,204.972
		c0-3.322,0.048-6.646-0.013-9.967c-0.063-3.388-2.073-5.822-5.19-5.175c-1.9,0.395-4.499,3.203-4.666,5.113
		c-0.577,6.594-0.257,13.271-0.21,19.915c0.024,3.397,2.047,5.825,5.176,5.164c1.906-0.402,4.173-3.079,4.695-5.135
		C272.145,211.765,271.56,208.294,271.563,204.972z"/>
		<path d="M271.562,204.972c-0.001,3.322,0.583,6.793-0.208,9.915c-0.522,2.056-2.788,4.733-4.695,5.135
		c-3.129,0.66-5.152-1.767-5.176-5.164c-0.047-6.644-0.366-13.321,0.21-19.915c0.167-1.909,2.766-4.718,4.666-5.113
		c3.117-0.647,5.127,1.787,5.19,5.175C271.611,198.326,271.563,201.65,271.562,204.972z"/>
	</g>
</svg>
